<?xml version="1.0" standalone="no"?>
<!DOCTYPE svg PUBLIC "-//W3C//DTD SVG 20010904//EN"
 "http://www.w3.org/TR/2001/REC-SVG-20010904/DTD/svg10.dtd">
<svg version="1.0" xmlns="http://www.w3.org/2000/svg"
 width="1000.000000pt" height="1000.000000pt" viewBox="0 0 1000.000000 1000.000000"
 preserveAspectRatio="xMidYMid meet">
<metadata>
Created by potrace 1.14, written by Peter Selinger 2001-2017
</metadata>
<g transform="translate(0.000000,1000.000000) scale(0.100000,-0.100000)"
fill="#000000" stroke="none">
<path d="M0 5000 l0 -5000 5000 0 5000 0 0 5000 0 5000 -5000 0 -5000 0 0
-5000z m5249 921 c213 -62 412 -203 531 -375 56 -82 110 -202 137 -303 35
-135 37 -326 5 -457 -94 -376 -396 -655 -775 -716 -105 -17 -290 -8 -392 20
-343 93 -601 364 -681 715 -27 115 -25 301 4 418 90 365 361 628 733 712 97
22 341 14 438 -14z m-1669 -1188 c59 -311 236 -619 470 -820 202 -173 458
-295 709 -337 124 -21 358 -21 482 0 526 88 975 478 1133 985 19 63 40 140 46
172 l11 57 880 0 879 0 0 -39 c0 -61 -28 -262 -55 -396 -99 -490 -319 -957
-644 -1365 -96 -121 -358 -383 -481 -482 -466 -373 -1001 -601 -1600 -683
-166 -23 -488 -30 -661 -16 -644 55 -1213 277 -1729 677 -148 114 -420 386
-534 534 -340 439 -551 915 -641 1444 -13 78 -27 183 -31 234 l-7 92 881 0
881 0 11 -57z"/>
</g>
</svg>
